<?xml version="1.0" encoding="UTF-8"?> <svg xmlns="http://www.w3.org/2000/svg" width="36" height="36" viewBox="0 0 36 36" fill="none"> <path d="M18 36C27.9411 36 36 27.9411 36 18C36 8.05888 27.9411 0 18 0C8.05888 0 0 8.05888 0 18C0 27.9411 8.05888 36 18 36Z" fill="white"></path> <path d="M6.31717 18.9076C8.46554 17.7509 10.8637 16.7855 13.1044 15.8152C16.9593 14.2259 20.8295 12.6641 24.7388 11.2101C25.4994 10.9624 26.866 10.7202 27 11.8219C26.9266 13.3814 26.6247 14.9318 26.4177 16.4822C25.8922 19.8916 25.2848 23.2894 24.6925 26.6877C24.4884 27.8196 23.0377 28.4056 22.1095 27.6812C19.8787 26.2084 17.6308 24.7498 15.4286 23.2429C14.7072 22.5264 15.3761 21.4974 16.0204 20.9858C17.8577 19.2159 19.8062 17.7122 21.5475 15.8509C22.0172 14.7423 20.6294 15.6766 20.1716 15.9629C17.6563 17.6572 15.2026 19.4548 12.5506 20.9439C11.196 21.6727 9.61724 21.0499 8.26326 20.6432C7.04927 20.1519 5.27028 19.6569 6.31705 18.9078L6.31717 18.9076Z" fill="#3052D8"></path> </svg> 