<?xml version="1.0" encoding="UTF-8"?> <svg xmlns="http://www.w3.org/2000/svg" viewBox="0 0 349 349"> <switch> <g> <path d="M348.5 85.3v.5c-.2.4-.3.8-.5 1.2l-3.3 9.6c-3.8 10.3-7.9 20.5-12.8 30.4-3.5 7-7.7 13.6-13.1 19.4-3.4 3.7-6.7 7.5-9.9 11.3-3.6 4.3-7.1 8.7-10 13.5-2 3.3-3.7 6.8-4.8 10.6-1.5 5-1 9.8 1.8 14.3.9 1.4 1.8 2.8 2.8 4.1 2.5 3.3 5.5 6.2 8.6 9 2.8 2.6 5.7 5.1 8.6 7.6 5.2 4.4 9.9 9.2 14.8 13.9 3.4 3.2 6.6 6.6 9.5 10.2 2.3 2.9 4.3 5.9 5.7 9.3 1.1 2.8 1.7 5.7 1.5 8.7-.1 1.5-.4 2.9-.9 4.2-1.2 3-3.5 4.8-6.5 5.9-2.3.9-4.8 1.3-7.2 1.4-3 .1-6 .2-9 .2-4 0-7.9-.3-11.9-.3-4.9 0-9.8.2-14.7.4-.3 0-.6.1-.9.1h-11.8c-.3-.1-.7-.1-1-.2-2.3-.2-4.7-.4-7-.7-6.6-1-12.5-3.5-17.9-7.4-3.6-2.6-6.6-5.8-9.5-9.2-4.3-5.2-8.6-10.4-12.9-15.5-.9-1.1-1.8-2.1-2.8-3.1-2-2.2-4.2-4.1-6.8-5.6-2.8-1.6-5.8-2.2-9-1.7-3 .5-5.5 1.9-7.3 4.4-1 1.4-1.7 3-2.3 4.6-1 2.9-1.5 5.9-1.9 8.8-.6 4-1 8.1-1.6 12.1-.4 3.1-1.1 6.1-2.1 9-.2.6-.5.9-1.1.9-6 .9-12.1 1.6-18.2 1.9-7.1.4-14.1.3-21.2-.3-5.1-.4-10.2-1.1-15.2-2.2-11.5-2.3-22.4-6.3-32.7-12-10.7-5.9-20.2-13.4-28.8-21.9-7.6-7.5-14.3-15.7-20.6-24.3-7-9.6-13.3-19.6-19.5-29.8-6-9.8-11.6-19.8-16.6-30.1-6.4-13.2-12.4-26.6-18.1-40.1C7.2 100.8 4 93 .8 85.2c-.2-.3-.3-.6-.4-1 21.9-.1 43.7-.2 65.5-.2.3.5.5.9.7 1.2C74.3 99.1 82 113.1 89.7 127c3.7 6.7 7.6 13.1 12.1 19.3 3.3 4.6 6.6 9.2 9.9 13.7 1.3 1.8 2.6 3.5 4 5.2 1.3 1.5 2.7 3 4.2 4.2 1.2 1 2.6 1.8 4.1 2.3 2.8.9 5.3.3 7.3-1.9 1-1.1 1.7-2.3 2.4-3.6 1.1-2.2 1.9-4.5 2.5-6.8 1.8-6.8 2.6-13.8 2.8-20.9.1-3.9 0-7.8-.1-11.7-.1-4.2-.7-8.5-1.5-12.6-.6-3-1.3-5.9-2.5-8.7-1.1-2.6-2.8-4.8-5.1-6.5-1.7-1.3-3.6-2.3-5.6-3-2.4-.9-4.9-1.7-7.3-2.5-.2-.1-.5-.2-.7-.3.4-1.9 1.4-3.3 2.7-4.5 1.5-1.3 3.1-2.3 4.9-3.2 3-1.5 6.1-2.5 9.4-3.4 9.1-2.4 18.4-3.4 27.7-3.7 5-.2 9.9-.1 14.9.3 4.4.3 8.8.9 13.1 1.8 2.9.7 5.8 1.5 8.5 2.9 1.8.9 3.3 2.1 4.5 3.7 1.9 2.5 3 5.3 3.8 8.3.9 3.9 1.1 7.9 1.1 11.8-.1 5.7-.8 11.3-1.4 16.9l-1.8 15.6c-.5 5-.7 9.9-.2 14.9.3 3.1.9 6.1 2.1 9 1.4 3.3 3.4 6 6.3 8.1.5.4.8.4 1.4.1 1.6-1 3.2-2 4.8-3.1 4.7-3.3 8.7-7.3 12.5-11.6 5.9-6.6 11-13.7 15.6-21.2 10-15.8 18.2-32.6 25.3-49.8.1-.3.3-.6.4-1h3.6c7.9 0 15.8.1 23.8.2 9.2.1 18.4.1 27.6.2 6.7 0 13.5.1 20.2.1.5-.2 1-.2 1.5-.3z" fill="#fff"></path> </g> </switch> </svg> 