<?xml version="1.0" encoding="UTF-8"?> <svg xmlns="http://www.w3.org/2000/svg" width="34" height="24" viewBox="0 0 34 24" fill="none"> <g clip-path="url(#clip0_452_1400)"> <path d="M33.3027 3.75565C32.9109 2.28954 31.7621 1.13138 30.3078 0.736402C27.6449 0 17 0 17 0C17 0 6.35508 0 3.69883 0.702929C2.27109 1.09791 1.0957 2.28285 0.703906 3.74895C0 6.44017 0 11.9967 0 11.9967C0 11.9967 0 17.5866 0.697266 20.2377C1.08906 21.7038 2.23789 22.8619 3.69219 23.2569C6.38164 23.9933 16.9934 23.9933 16.9934 23.9933C16.9934 23.9933 27.6383 23.9933 30.2945 23.2904C31.7488 22.8954 32.8977 21.7372 33.2895 20.2711C34 17.5866 34 12.0301 34 12.0301C34 12.0301 34.0266 6.44017 33.3027 3.75565Z" fill="white"></path> <path d="M13.6133 17.1381L22.4652 11.9967L13.6133 6.86194V17.1381Z" fill="#3052D8"></path> </g> <defs> <clipPath id="clip0_452_1400"> <rect width="34" height="24" fill="white"></rect> </clipPath> </defs> </svg> 